<svg width="35" height="35" viewBox="0 0 35 35" fill="none" xmlns="http://www.w3.org/2000/svg">
<path d="M29.5312 6.5625H5.46875C4.86469 6.5625 4.375 7.05219 4.375 7.65625V27.3438C4.375 27.9478 4.86469 28.4375 5.46875 28.4375H29.5312C30.1353 28.4375 30.625 27.9478 30.625 27.3438V7.65625C30.625 7.05219 30.1353 6.5625 29.5312 6.5625Z" stroke="#0074DD" stroke-width="2" stroke-linecap="round" stroke-linejoin="round"/>
<path d="M4.375 22.9698L11.2578 16.087C11.3594 15.9854 11.48 15.9048 11.6127 15.8499C11.7454 15.7949 11.8876 15.7666 12.0312 15.7666C12.1749 15.7666 12.3171 15.7949 12.4498 15.8499C12.5825 15.9048 12.7031 15.9854 12.8046 16.087L18.9141 22.1964C19.0156 22.298 19.1362 22.3785 19.2689 22.4335C19.4016 22.4885 19.5438 22.5168 19.6875 22.5168C19.8311 22.5168 19.9733 22.4885 20.106 22.4335C20.2387 22.3785 20.3593 22.298 20.4609 22.1964L23.2891 19.3682C23.3906 19.2666 23.5112 19.1861 23.6439 19.1311C23.7766 19.0761 23.9188 19.0479 24.0625 19.0479C24.2061 19.0479 24.3483 19.0761 24.481 19.1311C24.6137 19.1861 24.7343 19.2666 24.8359 19.3682L30.625 25.1573" stroke="#0074DD" stroke-width="2" stroke-linecap="round" stroke-linejoin="round"/>
<path d="M21.3281 15.3125C22.2342 15.3125 22.9688 14.578 22.9688 13.6719C22.9688 12.7658 22.2342 12.0312 21.3281 12.0312C20.422 12.0312 19.6875 12.7658 19.6875 13.6719C19.6875 14.578 20.422 15.3125 21.3281 15.3125Z" fill="#0074DD"/>
</svg>
