<svg width="13" height="13" viewBox="0 0 13 13" fill="none" xmlns="http://www.w3.org/2000/svg">
<g clip-path="url(#clip0_300_169)">
<path d="M5.96249 5.81357C4.46436 6.215 2.96083 9.1001 3.35254 10.562C3.52897 11.2204 4.14015 11.4782 4.98779 11.2511C5.90919 11.0042 6.39083 10.3681 7.1298 10.17C7.87519 9.97032 8.61209 10.28 9.52538 10.0353C10.373 9.80816 10.7734 9.27928 10.597 8.62087C10.2053 7.15896 7.46062 5.41215 5.96249 5.81357ZM3.1202 6.32018C2.74884 5.71906 2.03094 5.45768 1.51676 5.73619C1.00257 6.01469 0.886885 6.72772 1.25825 7.32885C1.62961 7.92997 2.3475 8.19135 2.86169 7.91285C3.37588 7.63434 3.49156 6.92131 3.1202 6.32018V6.32018ZM4.61346 5.49989C5.15602 5.18992 5.23676 4.32308 4.7939 3.56378C4.35104 2.80448 3.55225 2.44042 3.00969 2.75039C2.46713 3.06036 2.38639 3.9272 2.82925 4.6865C3.27212 5.4458 4.07114 5.81 4.61346 5.49989ZM9.77378 3.52393C9.18922 3.53982 8.69839 4.12508 8.67715 4.83141C8.65611 5.53768 9.11281 6.09733 9.69736 6.08143C10.2819 6.06554 10.7727 5.48028 10.794 4.77396C10.815 4.06768 10.3583 3.50803 9.77378 3.52393V3.52393ZM6.97394 4.8674C7.5988 4.86456 8.10854 4.14988 8.11242 3.27088C8.1163 2.39188 7.613 1.68173 6.9881 1.68438C6.36319 1.68703 5.8535 2.4019 5.84962 3.2809C5.84575 4.1599 6.34909 4.87024 6.97394 4.8674V4.8674Z" fill="#606060"/>
</g>
<defs>
<clipPath id="clip0_300_169">
<rect width="10" height="10" fill="white" transform="translate(0 2.88184) rotate(-15)"/>
</clipPath>
</defs>
</svg>
