<svg width="19" height="20" viewBox="0 0 19 20" fill="none" xmlns="http://www.w3.org/2000/svg">
<g clip-path="url(#clip0_300_169)">
<path d="M8.94276 8.98647C6.69557 9.5886 4.44026 13.9163 5.02784 16.1091C5.29247 17.0967 6.20925 17.4835 7.48071 17.1428C8.86282 16.7725 9.58527 15.8182 10.6937 15.5212C11.8118 15.2216 12.9172 15.6861 14.2871 15.319C15.5585 14.9783 16.1591 14.185 15.8945 13.1974C15.3069 11.0046 11.19 8.38434 8.94276 8.98647ZM4.67932 9.74639C4.12228 8.8447 3.04544 8.45263 2.27416 8.87039C1.50288 9.28815 1.32935 10.3577 1.88639 11.2594C2.44343 12.1611 3.52028 12.5531 4.29156 12.1354C5.06284 11.7176 5.23637 10.6481 4.67932 9.74639V9.74639ZM6.91922 8.51595C7.73305 8.05099 7.85416 6.75073 7.18987 5.61178C6.52558 4.47284 5.3274 3.92674 4.51356 4.3917C3.69972 4.85666 3.57861 6.15692 4.24291 7.29586C4.9072 8.43481 6.10574 8.98111 6.91922 8.51595ZM14.6597 5.552C13.7829 5.57585 13.0466 6.45374 13.0148 7.51322C12.9832 8.57263 13.6682 9.41211 14.5451 9.38826C15.4219 9.36442 16.1581 8.48653 16.19 7.42705C16.2216 6.36764 15.5365 5.52816 14.6597 5.552V5.552ZM10.4599 7.56721C11.3972 7.56296 12.1618 6.49094 12.1676 5.17244C12.1735 3.85393 11.4185 2.78871 10.4812 2.79268C9.54381 2.79665 8.77928 3.86896 8.77346 5.18746C8.76764 6.50597 9.52266 7.57147 10.4599 7.56721V7.56721Z" fill="#606060"/>
</g>
<defs>
<clipPath id="clip0_300_169">
<rect width="15" height="15" fill="white" transform="translate(0 4.58789) rotate(-15)"/>
</clipPath>
</defs>
</svg>
