<svg width="18" height="18" viewBox="0 0 18 18" fill="none" xmlns="http://www.w3.org/2000/svg">
<g clip-path="url(#clip0_52_43)">
<path d="M9 0.28125C4.02823 0.28125 0 4.18359 0 9C0 13.8164 4.02823 17.7188 9 17.7188C13.9718 17.7188 18 13.8164 18 9C18 4.18359 13.9718 0.28125 9 0.28125ZM9 16.0312C4.99718 16.0312 1.74194 12.8777 1.74194 9C1.74194 5.12227 4.99718 1.96875 9 1.96875C13.0028 1.96875 16.2581 5.12227 16.2581 9C16.2581 12.8777 13.0028 16.0312 9 16.0312ZM6.09677 8.4375C6.73911 8.4375 7.25806 7.93477 7.25806 7.3125C7.25806 6.69023 6.73911 6.1875 6.09677 6.1875C5.45444 6.1875 4.93548 6.69023 4.93548 7.3125C4.93548 7.93477 5.45444 8.4375 6.09677 8.4375ZM11.9032 6.1875C11.2609 6.1875 10.7419 6.69023 10.7419 7.3125C10.7419 7.93477 11.2609 8.4375 11.9032 8.4375C12.5456 8.4375 13.0645 7.93477 13.0645 7.3125C13.0645 6.69023 12.5456 6.1875 11.9032 6.1875ZM9 10.6875C7.54113 10.6875 6.16935 11.3098 5.23306 12.3961C4.9246 12.7547 4.9754 13.2855 5.34556 13.5844C5.71573 13.8797 6.26371 13.834 6.57218 13.4754C7.1746 12.7758 8.06008 12.3715 9 12.3715C9.93992 12.3715 10.8254 12.7723 11.4278 13.4754C11.7218 13.8164 12.2661 13.8938 12.6544 13.5844C13.0246 13.2855 13.0718 12.7547 12.7669 12.3961C11.8306 11.3098 10.4589 10.6875 9 10.6875Z" fill="black"/>
</g>
<defs>
<clipPath id="clip0_52_43">
<rect width="18" height="18" fill="white"/>
</clipPath>
</defs>
</svg>
