<svg width="24" height="24" viewBox="0 0 24 24" fill="none" xmlns="http://www.w3.org/2000/svg">
<g clip-path="url(#clip0_36_53)">
<path d="M24 11.25C24 10.1423 23.4604 9.18563 22.6667 8.66625V1.50047C22.6667 1.09031 22.3758 0 21.3333 0C21.0367 0 20.7421 0.111563 20.5008 0.329062L16.9579 3.51797C15.1783 5.11828 12.9442 6 10.6667 6H2.66667C1.19375 6 0 7.34297 0 9V13.5C0 15.157 1.19375 16.5 2.66667 16.5H4.07083C4.01292 16.9912 3.98 17.4909 3.98 18C3.98 19.8642 4.36583 21.6258 5.045 23.2003C5.26125 23.7014 5.73333 24 6.22833 24H9.32333C10.4088 24 11.0604 22.6013 10.4025 21.63C9.71917 20.6213 9.31292 19.3631 9.31292 18C9.31292 17.4792 9.38042 16.9786 9.49667 16.5H10.6667C12.9442 16.5 15.1783 17.3817 16.9575 18.982L20.5004 22.1709C20.7367 22.3837 21.0303 22.4997 21.3329 22.5C22.3713 22.5 22.6663 21.4322 22.6663 21V13.8342C23.4604 13.3144 24 12.3577 24 11.25ZM20 17.8791L18.6229 16.6397C16.3729 14.6147 13.5467 13.5 10.6667 13.5V9C13.5467 9 16.3729 7.88531 18.6229 5.86031L20 4.62094V17.8791Z" fill="#0074DD"/>
</g>
<defs>
<clipPath id="clip0_36_53">
<rect width="24" height="24" fill="white"/>
</clipPath>
</defs>
</svg>
