<svg width="46" height="46" viewBox="0 0 46 46" fill="none" xmlns="http://www.w3.org/2000/svg">
<path d="M45.6274 23.0005L23 0.373047L0.372583 23.0005L23 45.6279L45.6274 23.0005Z" fill="white"/>
<path d="M15.0016 11.6676L15.0074 11.6833L19.1224 22.6258C19.1232 22.6314 19.1241 22.6384 19.1251 22.6468C19.13 22.691 19.1335 22.7512 19.1335 22.8184C19.1335 22.8855 19.13 22.9457 19.1251 22.99C19.1241 22.9984 19.1232 23.0053 19.1224 23.0109L15.0074 33.9547L15.0016 33.9703C14.8647 34.3538 14.848 34.7699 14.9539 35.1631C15.0598 35.5562 15.2831 35.9077 15.5941 36.1705C15.9051 36.4334 16.2889 36.595 16.6942 36.6339C17.0995 36.6727 17.5071 36.587 17.8623 36.388L38.9767 24.564C39.2869 24.3903 39.5452 24.137 39.7249 23.8303C39.9047 23.5236 39.9995 23.1745 39.9995 22.819C39.9995 22.4634 39.9047 22.1143 39.7249 21.8076C39.5452 21.5009 39.2869 21.2477 38.9767 21.0739L17.8623 9.24991C17.5071 9.05096 17.0995 8.96519 16.6942 9.00405C16.2889 9.04291 15.9051 9.20456 15.5941 9.46739C15.2831 9.73021 15.0598 10.0817 14.9539 10.4749C14.848 10.868 14.8647 11.2841 15.0016 11.6676Z" fill="#0074DD" stroke="white" stroke-width="2" stroke-linecap="round" stroke-linejoin="round"/>
<path d="M19.9707 23L27.9707 23" stroke="white" stroke-width="2" stroke-linecap="round" stroke-linejoin="round"/>
</svg>
