<svg width="32" height="32" viewBox="0 0 32 32" fill="none" xmlns="http://www.w3.org/2000/svg">
<mask id="path-1-inside-1_715_47" fill="white">
<path d="M12 22.5C12.43 23.6871 13.1253 24.5831 14.0359 25.4775C14.9465 26.3718 16.0497 27.0586 17.266 27.4884C18.4824 27.9181 19.7816 28.0802 21.0701 27.963C22.3587 27.8457 23.6044 27.452 24.7176 26.8102L27.7385 27.6495C27.8635 27.6842 27.9957 27.6858 28.1216 27.6541C28.2474 27.6224 28.3622 27.5585 28.4541 27.4691C28.546 27.3797 28.6117 27.2681 28.6443 27.1457C28.6769 27.0233 28.6753 26.8947 28.6396 26.7732L27.7765 23.8353C28.5433 22.5775 28.964 21.1487 28.9978 19.6868C29.0316 18.2248 28.6773 16.7791 27.9693 15.4891C27.2613 14.1991 26.2233 13.1083 24.9556 12.322C23.5 11.5 23.5 11.5 22.5 11"/>
</mask>
<path d="M13.8805 21.8189C13.5043 20.7803 12.3574 20.2434 11.3189 20.6195C10.2803 20.9957 9.74338 22.1426 10.1195 23.1811L13.8805 21.8189ZM24.7176 26.8102L25.253 24.8832C24.7362 24.7396 24.1834 24.8096 23.7187 25.0775L24.7176 26.8102ZM27.7385 27.6495L28.2739 25.7225L28.2739 25.7225L27.7385 27.6495ZM28.6396 26.7732L30.5585 26.2094L30.5585 26.2094L28.6396 26.7732ZM27.7765 23.8353L26.0688 22.7941C25.7754 23.2754 25.6987 23.8582 25.8576 24.399L27.7765 23.8353ZM24.9556 12.322L26.0098 10.6224C25.9865 10.6079 25.9629 10.5939 25.939 10.5804L24.9556 12.322ZM23.3944 9.21115C22.4065 8.71717 21.2051 9.11762 20.7111 10.1056C20.2172 11.0935 20.6176 12.2949 21.6056 12.7889L23.3944 9.21115ZM10.1195 23.1811C10.6878 24.75 11.6027 25.891 12.6345 26.9044L15.4373 24.0505C14.6479 23.2753 14.1722 22.6242 13.8805 21.8189L10.1195 23.1811ZM12.6345 26.9044C13.756 28.0058 15.1108 28.848 16.5997 29.3741L17.9324 25.6026C16.9886 25.2691 16.137 24.7378 15.4373 24.0505L12.6345 26.9044ZM16.5997 29.3741C18.0885 29.9001 19.6769 30.098 21.2514 29.9547L20.8889 25.9712C19.8863 26.0624 18.8763 25.9361 17.9324 25.6026L16.5997 29.3741ZM21.2514 29.9547C22.826 29.8114 24.3509 29.3301 25.7166 28.5428L23.7187 25.0775C22.8578 25.5738 21.8914 25.88 20.8889 25.9712L21.2514 29.9547ZM24.1822 28.7372L27.2031 29.5765L28.2739 25.7225L25.253 24.8832L24.1822 28.7372ZM27.2031 29.5765C27.6627 29.7042 28.1479 29.71 28.6103 29.5935L27.6328 25.7147C27.8436 25.6616 28.0643 25.6642 28.2739 25.7225L27.2031 29.5765ZM28.6103 29.5935C29.0729 29.4769 29.5013 29.2406 29.8485 28.9029L27.0598 26.0354C27.2232 25.8764 27.4219 25.7679 27.6328 25.7147L28.6103 29.5935ZM29.8485 28.9029C30.1962 28.5648 30.45 28.1368 30.5769 27.6606L26.7117 26.6308C26.7734 26.3993 26.8959 26.1947 27.0598 26.0354L29.8485 28.9029ZM30.5769 27.6606C30.7039 27.1841 30.6974 26.6823 30.5585 26.2094L26.7207 27.3369C26.6531 27.1071 26.65 26.8626 26.7117 26.6308L30.5769 27.6606ZM30.5585 26.2094L29.6954 23.2715L25.8576 24.399L26.7207 27.3369L30.5585 26.2094ZM29.4841 24.8764C30.4326 23.3208 30.9553 21.5492 30.9973 19.733L26.9983 19.6406C26.9727 20.7482 26.6541 21.8341 26.0688 22.7941L29.4841 24.8764ZM30.9973 19.733C31.0392 17.9167 30.5989 16.1234 29.7226 14.5268L26.216 16.4514C26.7558 17.4348 27.0239 18.533 26.9983 19.6406L30.9973 19.733ZM29.7226 14.5268C28.8465 12.9306 27.5659 11.5875 26.0098 10.6224L23.9014 14.0216C24.8807 14.629 25.676 15.4675 26.216 16.4514L29.7226 14.5268ZM25.939 10.5804C24.4669 9.74917 24.4352 9.73155 23.3944 9.21115L21.6056 12.7889C22.5648 13.2684 22.5331 13.2508 23.9722 14.0635L25.939 10.5804Z" fill="#606060" mask="url(#path-1-inside-1_715_47)"/>
<path d="M14.6866 21.8493C12.5243 22.2391 10.2892 21.8662 8.40192 20.8066C8.17337 20.6733 7.89785 20.6344 7.63621 20.7054L4.47643 21.5631L5.35712 18.6348C5.44342 18.3478 5.39518 18.0446 5.23893 17.8032C4.13581 16.0289 3.75343 13.9405 4.15591 11.9251C4.55964 9.90347 5.72873 8.07918 7.45942 6.80208C9.19129 5.52411 11.3626 4.88585 13.5652 5.0168C15.7677 5.14773 17.8353 6.03779 19.3823 7.50748C20.9281 8.97598 21.8475 10.9205 21.9826 12.9724C22.1178 15.0239 21.4609 17.0586 20.1233 18.6946C18.7845 20.3321 16.8535 21.4588 14.6866 21.8493Z" stroke="#606060" stroke-width="2" stroke-linecap="round" stroke-linejoin="round"/>
</svg>
