<svg width="24" height="24" viewBox="0 0 24 24" fill="none" xmlns="http://www.w3.org/2000/svg">
<g clip-path="url(#clip0_4_26)">
<path d="M12.0004 10.5003C8.27802 10.5003 3.00036 16.2547 3.00036 19.887C3.00036 21.523 4.25708 22.5003 6.36317 22.5003C8.65255 22.5003 10.1643 21.3247 12.0004 21.3247C13.8524 21.3247 15.3683 22.5003 17.6375 22.5003C19.7436 22.5003 21.0004 21.523 21.0004 19.887C21.0004 16.2547 15.7227 10.5003 12.0004 10.5003ZM5.09661 9.90924C4.60911 8.28502 3.10723 7.23314 1.74223 7.55939C0.377235 7.88564 -0.333859 9.46674 0.153641 11.091C0.641141 12.7152 2.14302 13.767 3.50802 13.4408C4.87302 13.1145 5.58411 11.5335 5.09661 9.90924ZM9.06786 8.93517C10.5182 8.55361 11.2438 6.59424 10.6888 4.55892C10.1338 2.52361 8.50817 1.18346 7.05786 1.56502C5.60755 1.94658 4.88192 3.90596 5.43692 5.94127C5.99192 7.97658 7.61802 9.31721 9.06786 8.93517ZM22.258 7.55986C20.893 7.23361 19.3916 8.28549 18.9036 9.90971C18.4161 11.5339 19.1272 13.115 20.4922 13.4413C21.8572 13.7675 23.3586 12.7156 23.8466 11.0914C24.3341 9.46721 23.623 7.88611 22.258 7.55986ZM14.9329 8.93517C16.3832 9.31674 18.0088 7.97658 18.5638 5.94127C19.1188 3.90596 18.3932 1.94705 16.9429 1.56502C15.4925 1.18299 13.8669 2.52361 13.3119 4.55892C12.7569 6.59424 13.4825 8.55361 14.9329 8.93517Z" fill="#0074DD"/>
</g>
<defs>
<clipPath id="clip0_4_26">
<rect width="24" height="24" fill="white"/>
</clipPath>
</defs>
</svg>
